<mxfile host="app.diagrams.net" modified="2022-01-31T19:56:32.592Z" agent="5.0 (Windows NT 10.0; Win64; x64) AppleWebKit/537.36 (KHTML, like Gecko) Chrome/97.0.4692.99 Safari/537.36 Edg/97.0.1072.76" etag="cz9HF42j54YS1AePLHM2" version="16.5.2" type="github">
  <diagram id="yAFuGxo5yNmsHVtJD5dn" name="Page-1">
    <mxGraphModel dx="1422" dy="833" grid="1" gridSize="10" guides="1" tooltips="1" connect="1" arrows="1" fold="1" page="1" pageScale="1" pageWidth="1390" pageHeight="980" background="none" math="0" shadow="0">
      <root>
        <mxCell id="0" />
        <mxCell id="1" parent="0" />
        <mxCell id="qb8Em-1j8m2r2cLZV-c_-50" style="rounded=0;orthogonalLoop=1;jettySize=auto;html=1;exitX=0.5;exitY=0;exitDx=0;exitDy=0;startArrow=none;startFill=0;endArrow=block;endFill=0;endSize=12;strokeWidth=1;edgeStyle=orthogonalEdgeStyle;" parent="1" source="qb8Em-1j8m2r2cLZV-c_-1" edge="1">
          <mxGeometry relative="1" as="geometry">
            <mxPoint x="80" y="330" as="targetPoint" />
          </mxGeometry>
        </mxCell>
        <mxCell id="qb8Em-1j8m2r2cLZV-c_-1" value="ALUMNO" style="swimlane;fontStyle=0;childLayout=stackLayout;horizontal=1;startSize=26;fillColor=none;horizontalStack=0;resizeParent=1;resizeParentMax=0;resizeLast=0;collapsible=1;marginBottom=0;" parent="1" vertex="1">
          <mxGeometry x="10" y="400" width="140" height="52" as="geometry" />
        </mxCell>
        <mxCell id="qb8Em-1j8m2r2cLZV-c_-51" style="rounded=0;orthogonalLoop=1;jettySize=auto;html=1;exitX=0.5;exitY=0;exitDx=0;exitDy=0;startArrow=none;startFill=0;endArrow=block;endFill=0;endSize=12;strokeWidth=1;entryX=0.75;entryY=1;entryDx=0;entryDy=0;" parent="1" source="qb8Em-1j8m2r2cLZV-c_-5" target="qb8Em-1j8m2r2cLZV-c_-42" edge="1">
          <mxGeometry relative="1" as="geometry">
            <mxPoint x="100" y="370" as="targetPoint" />
          </mxGeometry>
        </mxCell>
        <mxCell id="qb8Em-1j8m2r2cLZV-c_-5" value="PROFESOR" style="swimlane;fontStyle=0;childLayout=stackLayout;horizontal=1;startSize=26;fillColor=none;horizontalStack=0;resizeParent=1;resizeParentMax=0;resizeLast=0;collapsible=1;marginBottom=0;" parent="1" vertex="1">
          <mxGeometry x="160" y="400" width="140" height="52" as="geometry" />
        </mxCell>
        <mxCell id="qb8Em-1j8m2r2cLZV-c_-52" style="rounded=0;orthogonalLoop=1;jettySize=auto;html=1;exitX=0.5;exitY=1;exitDx=0;exitDy=0;startArrow=none;startFill=0;endArrow=block;endFill=0;endSize=12;strokeWidth=1;entryX=0.5;entryY=0;entryDx=0;entryDy=0;" parent="1" source="qb8Em-1j8m2r2cLZV-c_-9" target="qb8Em-1j8m2r2cLZV-c_-42" edge="1">
          <mxGeometry relative="1" as="geometry">
            <mxPoint x="230" y="370" as="targetPoint" />
          </mxGeometry>
        </mxCell>
        <mxCell id="qb8Em-1j8m2r2cLZV-c_-9" value="GESTOR" style="swimlane;fontStyle=0;childLayout=stackLayout;horizontal=1;startSize=26;fillColor=none;horizontalStack=0;resizeParent=1;resizeParentMax=0;resizeLast=0;collapsible=1;marginBottom=0;" parent="1" vertex="1">
          <mxGeometry x="10" y="118" width="140" height="52" as="geometry" />
        </mxCell>
        <mxCell id="qb8Em-1j8m2r2cLZV-c_-55" style="edgeStyle=elbowEdgeStyle;rounded=0;orthogonalLoop=1;jettySize=auto;html=1;exitX=0.5;exitY=0;exitDx=0;exitDy=0;entryX=1;entryY=0.5;entryDx=0;entryDy=0;startArrow=none;startFill=0;endArrow=diamond;endFill=1;endSize=12;strokeWidth=1;" parent="1" source="qb8Em-1j8m2r2cLZV-c_-13" target="qb8Em-1j8m2r2cLZV-c_-29" edge="1">
          <mxGeometry relative="1" as="geometry">
            <Array as="points">
              <mxPoint x="930" y="120" />
            </Array>
          </mxGeometry>
        </mxCell>
        <mxCell id="qb8Em-1j8m2r2cLZV-c_-13" value="CARRERA" style="swimlane;fontStyle=0;childLayout=stackLayout;horizontal=1;startSize=26;fillColor=none;horizontalStack=0;resizeParent=1;resizeParentMax=0;resizeLast=0;collapsible=1;marginBottom=0;" parent="1" vertex="1">
          <mxGeometry x="860" y="160" width="140" height="52" as="geometry" />
        </mxCell>
        <mxCell id="qb8Em-1j8m2r2cLZV-c_-57" style="edgeStyle=orthogonalEdgeStyle;rounded=0;orthogonalLoop=1;jettySize=auto;html=1;exitX=0.5;exitY=0;exitDx=0;exitDy=0;entryX=0.5;entryY=1;entryDx=0;entryDy=0;startArrow=none;startFill=0;endArrow=diamond;endFill=1;endSize=12;strokeWidth=1;" parent="1" source="qb8Em-1j8m2r2cLZV-c_-17" target="qb8Em-1j8m2r2cLZV-c_-13" edge="1">
          <mxGeometry relative="1" as="geometry" />
        </mxCell>
        <mxCell id="qb8Em-1j8m2r2cLZV-c_-17" value="ASIGNATURA" style="swimlane;fontStyle=0;childLayout=stackLayout;horizontal=1;startSize=26;fillColor=none;horizontalStack=0;resizeParent=1;resizeParentMax=0;resizeLast=0;collapsible=1;marginBottom=0;" parent="1" vertex="1">
          <mxGeometry x="860" y="280" width="140" height="52" as="geometry" />
        </mxCell>
        <mxCell id="qb8Em-1j8m2r2cLZV-c_-54" style="edgeStyle=elbowEdgeStyle;rounded=0;orthogonalLoop=1;jettySize=auto;html=1;exitX=0.5;exitY=0;exitDx=0;exitDy=0;entryX=0.5;entryY=1;entryDx=0;entryDy=0;startArrow=none;startFill=0;endArrow=diamond;endFill=1;endSize=12;strokeWidth=1;" parent="1" source="qb8Em-1j8m2r2cLZV-c_-21" target="qb8Em-1j8m2r2cLZV-c_-29" edge="1">
          <mxGeometry relative="1" as="geometry" />
        </mxCell>
        <mxCell id="qb8Em-1j8m2r2cLZV-c_-21" value="CURSO" style="swimlane;fontStyle=0;childLayout=stackLayout;horizontal=1;startSize=26;fillColor=none;horizontalStack=0;resizeParent=1;resizeParentMax=0;resizeLast=0;collapsible=1;marginBottom=0;" parent="1" vertex="1">
          <mxGeometry x="520" y="160" width="140" height="52" as="geometry" />
        </mxCell>
        <mxCell id="qb8Em-1j8m2r2cLZV-c_-56" style="edgeStyle=orthogonalEdgeStyle;rounded=0;orthogonalLoop=1;jettySize=auto;html=1;exitX=0.5;exitY=0;exitDx=0;exitDy=0;entryX=0.5;entryY=1;entryDx=0;entryDy=0;startArrow=none;startFill=0;endArrow=diamond;endFill=1;endSize=12;strokeWidth=1;" parent="1" source="qb8Em-1j8m2r2cLZV-c_-25" target="qb8Em-1j8m2r2cLZV-c_-21" edge="1">
          <mxGeometry relative="1" as="geometry" />
        </mxCell>
        <mxCell id="qb8Em-1j8m2r2cLZV-c_-25" value="SECCION" style="swimlane;fontStyle=0;childLayout=stackLayout;horizontal=1;startSize=26;fillColor=none;horizontalStack=0;resizeParent=1;resizeParentMax=0;resizeLast=0;collapsible=1;marginBottom=0;" parent="1" vertex="1">
          <mxGeometry x="520" y="280" width="140" height="52" as="geometry" />
        </mxCell>
        <mxCell id="qb8Em-1j8m2r2cLZV-c_-29" value="AULA VIRTUAL" style="swimlane;fontStyle=0;childLayout=stackLayout;horizontal=1;startSize=26;fillColor=none;horizontalStack=0;resizeParent=1;resizeParentMax=0;resizeLast=0;collapsible=1;marginBottom=0;" parent="1" vertex="1">
          <mxGeometry x="520" y="40" width="140" height="52" as="geometry" />
        </mxCell>
        <mxCell id="qb8Em-1j8m2r2cLZV-c_-53" style="edgeStyle=elbowEdgeStyle;rounded=0;orthogonalLoop=1;jettySize=auto;html=1;exitX=0.5;exitY=0;exitDx=0;exitDy=0;entryX=0;entryY=0.5;entryDx=0;entryDy=0;startArrow=none;startFill=0;endArrow=diamond;endFill=1;endSize=12;strokeWidth=1;" parent="1" source="qb8Em-1j8m2r2cLZV-c_-33" target="qb8Em-1j8m2r2cLZV-c_-29" edge="1">
          <mxGeometry relative="1" as="geometry">
            <Array as="points">
              <mxPoint x="250" y="80" />
              <mxPoint x="250" y="130" />
            </Array>
          </mxGeometry>
        </mxCell>
        <mxCell id="qb8Em-1j8m2r2cLZV-c_-58" style="edgeStyle=orthogonalEdgeStyle;rounded=0;orthogonalLoop=1;jettySize=auto;html=1;exitX=0.998;exitY=0.308;exitDx=0;exitDy=0;entryX=0;entryY=0.5;entryDx=0;entryDy=0;startArrow=none;startFill=0;endArrow=block;endFill=0;endSize=12;strokeWidth=1;exitPerimeter=0;" parent="1" source="qb8Em-1j8m2r2cLZV-c_-33" target="qb8Em-1j8m2r2cLZV-c_-21" edge="1">
          <mxGeometry relative="1" as="geometry">
            <Array as="points" />
          </mxGeometry>
        </mxCell>
        <mxCell id="qb8Em-1j8m2r2cLZV-c_-59" value="0..999" style="edgeLabel;html=1;align=center;verticalAlign=middle;resizable=0;points=[];" parent="qb8Em-1j8m2r2cLZV-c_-58" vertex="1" connectable="0">
          <mxGeometry x="0.8585" y="1" relative="1" as="geometry">
            <mxPoint x="-166" y="-15" as="offset" />
          </mxGeometry>
        </mxCell>
        <mxCell id="qb8Em-1j8m2r2cLZV-c_-60" style="edgeStyle=orthogonalEdgeStyle;rounded=0;orthogonalLoop=1;jettySize=auto;html=1;entryX=0.25;entryY=1;entryDx=0;entryDy=0;startArrow=none;startFill=0;endArrow=block;endFill=0;endSize=12;strokeWidth=1;" parent="1" target="qb8Em-1j8m2r2cLZV-c_-13" edge="1">
          <mxGeometry relative="1" as="geometry">
            <mxPoint x="310" y="222" as="sourcePoint" />
            <Array as="points">
              <mxPoint x="310" y="222" />
              <mxPoint x="310" y="242" />
              <mxPoint x="895" y="242" />
            </Array>
          </mxGeometry>
        </mxCell>
        <mxCell id="qb8Em-1j8m2r2cLZV-c_-61" value="0..999" style="edgeLabel;html=1;align=center;verticalAlign=middle;resizable=0;points=[];" parent="qb8Em-1j8m2r2cLZV-c_-60" vertex="1" connectable="0">
          <mxGeometry x="0.9202" y="3" relative="1" as="geometry">
            <mxPoint x="-552" y="-7" as="offset" />
          </mxGeometry>
        </mxCell>
        <mxCell id="qb8Em-1j8m2r2cLZV-c_-73" style="edgeStyle=orthogonalEdgeStyle;rounded=0;orthogonalLoop=1;jettySize=auto;html=1;exitX=0.75;exitY=1;exitDx=0;exitDy=0;entryX=0;entryY=0.5;entryDx=0;entryDy=0;startArrow=none;startFill=0;endArrow=block;endFill=1;endSize=12;strokeWidth=1;dashed=1;" parent="1" source="qb8Em-1j8m2r2cLZV-c_-33" target="qb8Em-1j8m2r2cLZV-c_-62" edge="1">
          <mxGeometry relative="1" as="geometry">
            <Array as="points">
              <mxPoint x="285" y="300" />
              <mxPoint x="410" y="300" />
              <mxPoint x="410" y="440" />
            </Array>
          </mxGeometry>
        </mxCell>
        <mxCell id="qb8Em-1j8m2r2cLZV-c_-33" value="USUARIO" style="swimlane;fontStyle=0;childLayout=stackLayout;horizontal=1;startSize=26;fillColor=none;horizontalStack=0;resizeParent=1;resizeParentMax=0;resizeLast=0;collapsible=1;marginBottom=0;" parent="1" vertex="1">
          <mxGeometry x="180" y="170" width="140" height="52" as="geometry" />
        </mxCell>
        <mxCell id="qb8Em-1j8m2r2cLZV-c_-47" style="edgeStyle=orthogonalEdgeStyle;rounded=0;orthogonalLoop=1;jettySize=auto;html=1;exitX=0.75;exitY=0;exitDx=0;exitDy=0;entryX=0.5;entryY=1;entryDx=0;entryDy=0;endArrow=diamond;endFill=1;strokeWidth=1;startArrow=none;startFill=0;endSize=12;" parent="1" source="qb8Em-1j8m2r2cLZV-c_-42" target="qb8Em-1j8m2r2cLZV-c_-33" edge="1">
          <mxGeometry relative="1" as="geometry">
            <mxPoint x="250" y="230" as="targetPoint" />
          </mxGeometry>
        </mxCell>
        <mxCell id="qb8Em-1j8m2r2cLZV-c_-42" value="PERMISO" style="swimlane;fontStyle=0;childLayout=stackLayout;horizontal=1;startSize=26;fillColor=none;horizontalStack=0;resizeParent=1;resizeParentMax=0;resizeLast=0;collapsible=1;marginBottom=0;" parent="1" vertex="1">
          <mxGeometry x="30" y="280" width="140" height="52" as="geometry" />
        </mxCell>
        <mxCell id="qb8Em-1j8m2r2cLZV-c_-66" style="edgeStyle=orthogonalEdgeStyle;rounded=0;orthogonalLoop=1;jettySize=auto;html=1;exitX=0.25;exitY=0;exitDx=0;exitDy=0;entryX=0.5;entryY=1;entryDx=0;entryDy=0;startArrow=none;startFill=0;endArrow=diamond;endFill=1;endSize=12;strokeWidth=1;" parent="1" source="qb8Em-1j8m2r2cLZV-c_-62" target="qb8Em-1j8m2r2cLZV-c_-25" edge="1">
          <mxGeometry relative="1" as="geometry" />
        </mxCell>
        <mxCell id="qb8Em-1j8m2r2cLZV-c_-74" value="0..999" style="edgeLabel;html=1;align=center;verticalAlign=middle;resizable=0;points=[];" parent="qb8Em-1j8m2r2cLZV-c_-66" vertex="1" connectable="0">
          <mxGeometry x="-0.7097" relative="1" as="geometry">
            <mxPoint x="-25" y="18" as="offset" />
          </mxGeometry>
        </mxCell>
        <mxCell id="qb8Em-1j8m2r2cLZV-c_-67" style="edgeStyle=orthogonalEdgeStyle;rounded=0;orthogonalLoop=1;jettySize=auto;html=1;exitX=0.75;exitY=0;exitDx=0;exitDy=0;entryX=0.5;entryY=1;entryDx=0;entryDy=0;startArrow=none;startFill=0;endArrow=diamond;endFill=1;endSize=12;strokeWidth=1;" parent="1" source="qb8Em-1j8m2r2cLZV-c_-62" target="qb8Em-1j8m2r2cLZV-c_-17" edge="1">
          <mxGeometry relative="1" as="geometry" />
        </mxCell>
        <mxCell id="qb8Em-1j8m2r2cLZV-c_-75" value="0..999" style="edgeLabel;html=1;align=center;verticalAlign=middle;resizable=0;points=[];" parent="qb8Em-1j8m2r2cLZV-c_-67" vertex="1" connectable="0">
          <mxGeometry x="-0.7327" y="-3" relative="1" as="geometry">
            <mxPoint x="22" y="15" as="offset" />
          </mxGeometry>
        </mxCell>
        <mxCell id="qb8Em-1j8m2r2cLZV-c_-62" value="RECURSO" style="swimlane;fontStyle=0;childLayout=stackLayout;horizontal=1;startSize=26;fillColor=none;horizontalStack=0;resizeParent=1;resizeParentMax=0;resizeLast=0;collapsible=1;marginBottom=0;" parent="1" vertex="1">
          <mxGeometry x="690" y="414" width="140" height="52" as="geometry" />
        </mxCell>
        <mxCell id="qb8Em-1j8m2r2cLZV-c_-76" style="edgeStyle=orthogonalEdgeStyle;rounded=0;orthogonalLoop=1;jettySize=auto;html=1;exitX=0;exitY=0.5;exitDx=0;exitDy=0;entryX=1;entryY=0.5;entryDx=0;entryDy=0;startArrow=none;startFill=0;endArrow=diamond;endFill=1;endSize=12;strokeWidth=1;" parent="1" source="qb8Em-1j8m2r2cLZV-c_-68" target="qb8Em-1j8m2r2cLZV-c_-62" edge="1">
          <mxGeometry relative="1" as="geometry">
            <Array as="points">
              <mxPoint x="930" y="460" />
              <mxPoint x="885" y="460" />
              <mxPoint x="885" y="440" />
            </Array>
          </mxGeometry>
        </mxCell>
        <mxCell id="qb8Em-1j8m2r2cLZV-c_-68" value="TIPO RECURSO" style="swimlane;fontStyle=0;childLayout=stackLayout;horizontal=1;startSize=26;fillColor=none;horizontalStack=0;resizeParent=1;resizeParentMax=0;resizeLast=0;collapsible=1;marginBottom=0;" parent="1" vertex="1">
          <mxGeometry x="930" y="452" width="140" height="52" as="geometry" />
        </mxCell>
        <mxCell id="qb8Em-1j8m2r2cLZV-c_-97" style="edgeStyle=orthogonalEdgeStyle;rounded=0;orthogonalLoop=1;jettySize=auto;html=1;exitX=0.75;exitY=0;exitDx=0;exitDy=0;startArrow=none;startFill=0;endArrow=block;endFill=0;endSize=12;strokeWidth=1;entryX=1;entryY=0.75;entryDx=0;entryDy=0;" parent="1" source="qb8Em-1j8m2r2cLZV-c_-77" target="qb8Em-1j8m2r2cLZV-c_-68" edge="1">
          <mxGeometry relative="1" as="geometry">
            <mxPoint x="1060" y="510" as="targetPoint" />
            <Array as="points">
              <mxPoint x="1105" y="491" />
            </Array>
          </mxGeometry>
        </mxCell>
        <mxCell id="qb8Em-1j8m2r2cLZV-c_-77" value="CLASE VIRTUAL" style="swimlane;fontStyle=0;childLayout=stackLayout;horizontal=1;startSize=26;fillColor=none;horizontalStack=0;resizeParent=1;resizeParentMax=0;resizeLast=0;collapsible=1;marginBottom=0;" parent="1" vertex="1">
          <mxGeometry x="1000" y="600" width="140" height="52" as="geometry" />
        </mxCell>
        <mxCell id="qb8Em-1j8m2r2cLZV-c_-98" style="edgeStyle=orthogonalEdgeStyle;rounded=0;orthogonalLoop=1;jettySize=auto;html=1;exitX=0.5;exitY=0;exitDx=0;exitDy=0;entryX=0.75;entryY=1;entryDx=0;entryDy=0;startArrow=none;startFill=0;endArrow=block;endFill=0;endSize=12;strokeWidth=1;" parent="1" source="qb8Em-1j8m2r2cLZV-c_-81" target="qb8Em-1j8m2r2cLZV-c_-68" edge="1">
          <mxGeometry relative="1" as="geometry">
            <Array as="points">
              <mxPoint x="910" y="580" />
              <mxPoint x="1035" y="580" />
            </Array>
          </mxGeometry>
        </mxCell>
        <mxCell id="qb8Em-1j8m2r2cLZV-c_-81" value="LECCION" style="swimlane;fontStyle=0;childLayout=stackLayout;horizontal=1;startSize=26;fillColor=none;horizontalStack=0;resizeParent=1;resizeParentMax=0;resizeLast=0;collapsible=1;marginBottom=0;" parent="1" vertex="1">
          <mxGeometry x="840" y="600" width="140" height="52" as="geometry" />
        </mxCell>
        <mxCell id="qb8Em-1j8m2r2cLZV-c_-99" style="edgeStyle=orthogonalEdgeStyle;rounded=0;orthogonalLoop=1;jettySize=auto;html=1;exitX=0.5;exitY=0;exitDx=0;exitDy=0;entryX=0.5;entryY=1;entryDx=0;entryDy=0;startArrow=none;startFill=0;endArrow=block;endFill=0;endSize=12;strokeWidth=1;" parent="1" source="qb8Em-1j8m2r2cLZV-c_-85" target="qb8Em-1j8m2r2cLZV-c_-68" edge="1">
          <mxGeometry relative="1" as="geometry">
            <Array as="points">
              <mxPoint x="750" y="560" />
              <mxPoint x="1000" y="560" />
            </Array>
          </mxGeometry>
        </mxCell>
        <mxCell id="qb8Em-1j8m2r2cLZV-c_-85" value="DOCUMENTO" style="swimlane;fontStyle=0;childLayout=stackLayout;horizontal=1;startSize=26;fillColor=none;horizontalStack=0;resizeParent=1;resizeParentMax=0;resizeLast=0;collapsible=1;marginBottom=0;" parent="1" vertex="1">
          <mxGeometry x="680" y="600" width="140" height="52" as="geometry" />
        </mxCell>
        <mxCell id="qb8Em-1j8m2r2cLZV-c_-100" style="edgeStyle=orthogonalEdgeStyle;rounded=0;orthogonalLoop=1;jettySize=auto;html=1;exitX=0.5;exitY=0;exitDx=0;exitDy=0;entryX=0.25;entryY=1;entryDx=0;entryDy=0;startArrow=none;startFill=0;endArrow=block;endFill=0;endSize=12;strokeWidth=1;" parent="1" source="qb8Em-1j8m2r2cLZV-c_-89" target="qb8Em-1j8m2r2cLZV-c_-68" edge="1">
          <mxGeometry relative="1" as="geometry">
            <Array as="points">
              <mxPoint x="590" y="540" />
              <mxPoint x="965" y="540" />
            </Array>
          </mxGeometry>
        </mxCell>
        <mxCell id="qb8Em-1j8m2r2cLZV-c_-89" value="EVALUACION" style="swimlane;fontStyle=0;childLayout=stackLayout;horizontal=1;startSize=26;fillColor=none;horizontalStack=0;resizeParent=1;resizeParentMax=0;resizeLast=0;collapsible=1;marginBottom=0;" parent="1" vertex="1">
          <mxGeometry x="520" y="600" width="140" height="52" as="geometry" />
        </mxCell>
        <mxCell id="qb8Em-1j8m2r2cLZV-c_-101" style="edgeStyle=orthogonalEdgeStyle;rounded=0;orthogonalLoop=1;jettySize=auto;html=1;exitX=0.5;exitY=0;exitDx=0;exitDy=0;entryX=0;entryY=0.75;entryDx=0;entryDy=0;startArrow=none;startFill=0;endArrow=block;endFill=0;endSize=12;strokeWidth=1;" parent="1" source="qb8Em-1j8m2r2cLZV-c_-93" target="qb8Em-1j8m2r2cLZV-c_-68" edge="1">
          <mxGeometry relative="1" as="geometry" />
        </mxCell>
        <mxCell id="qb8Em-1j8m2r2cLZV-c_-93" value="TAREA" style="swimlane;fontStyle=0;childLayout=stackLayout;horizontal=1;startSize=26;fillColor=none;horizontalStack=0;resizeParent=1;resizeParentMax=0;resizeLast=0;collapsible=1;marginBottom=0;" parent="1" vertex="1">
          <mxGeometry x="360" y="600" width="140" height="52" as="geometry" />
        </mxCell>
      </root>
    </mxGraphModel>
  </diagram>
</mxfile>
